/* XPM */
static char *result[] = {
/* columns rows colors chars-per-pixel */
"64 64 247 2 ",
"   c #1F3114",
".  c #1C2A11",
"X  c #252816",
"o  c #263916",
"O  c #392D15",
"+  c #3B3425",
"@  c #141E0C",
"#  c #4C2B0D",
"$  c #5B3915",
"%  c #522F0F",
"&  c #533E35",
"*  c #47352D",
"=  c #2B471A",
"-  c #324A1E",
";  c #35521D",
":  c #2F5119",
">  c #384722",
",  c #3C5B25",
"<  c #395525",
"1  c #3E6225",
"2  c #68451B",
"3  c #484629",
"4  c #465A2B",
"5  c #595E2C",
"6  c #5C453A",
"7  c #5D4A3B",
"8  c #564338",
"9  c #5A5838",
"0  c #4D5233",
"q  c #694A22",
"w  c #714E21",
"e  c #6A532A",
"r  c #735429",
"t  c #78592A",
"y  c #644A3E",
"u  c #644A3A",
"i  c #6D5B32",
"p  c #635A3D",
"a  c #68533A",
"s  c #765C35",
"d  c #47672A",
"f  c #54752E",
"g  c #4A6835",
"h  c #576736",
"j  c #4D7636",
"k  c #587736",
"l  c #4F6C29",
"z  c #66653B",
"x  c #7C6233",
"c  c #74643C",
"v  c #776338",
"b  c #65773C",
"n  c #676B2F",
"m  c #5D4A41",
"M  c #644D42",
"N  c #6A4E42",
"B  c #6D5245",
"V  c #6C5A44",
"C  c #6D5549",
"Z  c #6E594B",
"A  c #665344",
"S  c #725546",
"D  c #755946",
"F  c #7A5946",
"G  c #735649",
"H  c #75594B",
"J  c #7B5C4C",
"K  c #785748",
"L  c #765E52",
"P  c #7B5E51",
"I  c #6F5C53",
"U  c #5A7641",
"Y  c #5A6742",
"T  c #6C6646",
"R  c #736345",
"E  c #7B6B44",
"W  c #7D614D",
"Q  c #7B6C4B",
"!  c #746749",
"~  c #6B7848",
"^  c #7D724B",
"/  c #767848",
"(  c #7D6252",
")  c #7D6559",
"_  c #796955",
"`  c #7B7657",
"'  c #6A7751",
"]  c #7E6960",
"[  c #8D6C36",
"{  c #856938",
"}  c #916D36",
"|  c #93713A",
" . c #825E2A",
".. c #815F4C",
"X. c #805F50",
"o. c #83624E",
"O. c #866A4A",
"+. c #8B744B",
"@. c #877448",
"#. c #997D4C",
"$. c #836452",
"%. c #896653",
"&. c #846A54",
"*. c #8B6A55",
"=. c #836759",
"-. c #846A5B",
";. c #8B6C5B",
":. c #916E5A",
">. c #916C56",
",. c #8B7554",
"<. c #8C715D",
"1. c #8C7D5A",
"2. c #877956",
"3. c #917D54",
"4. c #93725D",
"5. c #97795C",
"6. c #846D62",
"7. c #896E61",
"8. c #8D7262",
"9. c #887865",
"0. c #927563",
"q. c #9A7963",
"w. c #937A6B",
"e. c #9B7E6B",
"r. c #947865",
"t. c #927C70",
"y. c #A17C56",
"u. c #5B8539",
"i. c #648539",
"p. c #75903C",
"a. c #678C46",
"s. c #79864A",
"d. c #6A9647",
"f. c #749A4A",
"g. c #6C9551",
"h. c #7B9954",
"j. c #7D8B5C",
"k. c #76A24C",
"l. c #7EA758",
"z. c #5F8842",
"x. c #809C3D",
"c. c #878A4A",
"v. c #888459",
"b. c #93835E",
"n. c #9D855B",
"m. c #988A59",
"M. c #869956",
"N. c #929550",
"B. c #A3895B",
"V. c #A79A59",
"C. c #87A95B",
"Z. c #9AA85A",
"A. c #8DB35B",
"S. c #99AD4F",
"D. c #8D8263",
"F. c #8A8668",
"G. c #938564",
"H. c #958866",
"J. c #9B8A65",
"K. c #938A6C",
"L. c #9A8D6C",
"P. c #9B8368",
"I. c #9A9468",
"U. c #8D8A72",
"Y. c #948E73",
"T. c #9C8873",
"R. c #959076",
"E. c #9A9275",
"W. c #96927A",
"Q. c #99947B",
"!. c #9C9873",
"~. c #8C9465",
"^. c #A48D63",
"/. c #A58A64",
"(. c #A79468",
"). c #A48A77",
"_. c #A99779",
"`. c #B29876",
"'. c #93B067",
"]. c #B7A36A",
"[. c #B8A674",
"{. c #ACB170",
"}. c #ACA95B",
"|. c #C5AB6D",
" X c #CEB66D",
".X c #C3AC73",
"XX c #CAB478",
"oX c #D1B672",
"OX c #D4BB79",
"+X c #D0B46E",
"@X c #ABC56D",
"#X c #CECB6E",
"$X c #DDD46D",
"%X c #9A9780",
"&X c #9B9984",
"*X c #AB9885",
"=X c #B39885",
"-X c #BCAA85",
";X c #BDAD8A",
":X c #B4A587",
">X c #BEB18C",
",X c #BEB293",
"<X c #BDB19B",
"1X c #B8A998",
"2X c #C8B489",
"3X c #D5BC89",
"4X c #C2B394",
"5X c #C8B99A",
"6X c #D4BD95",
"7X c #D3BE9A",
"8X c #C6AE8B",
"9X c #CABAA4",
"0X c #DAC587",
"qX c #D6C19C",
"wX c #D9C694",
"eX c #C7C691",
"rX c #E3D18D",
"tX c #E3CB9A",
"yX c #EBD79B",
"uX c #EBD99C",
"iX c #E7D596",
"pX c #E1CC8A",
"aX c #EAE58C",
"sX c #DACAAB",
"dX c #D5C6A9",
"fX c #D7CAB5",
"gX c #D1C7B0",
"hX c #E4CEA4",
"jX c #E5D2AB",
"kX c #EAD5AB",
"lX c #ECD7A6",
"zX c #E4D4B4",
"xX c #E8D6B3",
"cX c #EBDBBC",
"vX c #E8D8B8",
"bX c #E8D5AF",
"nX c #ECDEC3",
"mX c #E5DBC5",
"MX c #EEE1C5",
"NX c #EEE2CA",
"BX c #F1E3C4",
"VX c #F2E5CC",
"CX c #F1E7D0",
"ZX c #F3EAD3",
"AX c #F7EED9",
"SX c #EEE6D1",
"DX c #CACAC1",
/* pixels */
"W H =.).F K =.*.4.H $.$.J %.F $.%.q.*XfXfX=X4.%.K B P C N 6 K S S X.%.%.$...S ..K %.$.$.....G G 7 N =.L J G H $.J P X.G S %.$.J ",
"X.o.G 0.F N N G =.=.=.W F W F o.%.*XnXAXZXCXfX1Xe.$.=.H B a D F N N K $.$.%.O.o.K B %.;.*.q.J N F F 6.L G J G C H G L B L S J $.",
"G S N y D G W B o.:.;.J H L ( 8.9XZXmX8X4XcXAXAXSX9X=Xr.<.o.>.o.J F J J X.P ....*...J X.J ( G J ..J L L K ..G M M N M C N J J C ",
"B C B ;.r.N H y H *.;.G G M P.fXZXdXO.2 r u T.sXSXAXZXmX1XT.J y D ..S J X.%.$.o.X.$.$.`.:.P $.S J P X.X.=.$.G H G C B M y 6 4.G ",
"F M J 8 H X.J S M P L M A %XmXCX-Xr $ $ 2 2 2 s n.5XnXZXAXSXfXQ.` F G G G $...D %.$.%.J *.-.0.o.F J $.%.J P J S J ;.J J $.+ M %.",
"%.%.o.F S $.$.C P J G ) <XZXcXq.$ $ 2 2 r x { x t t @.`.fXCXAXZXmX<X` a G G J B o.o.o.*.G J :.$.B P X.H F H P S H J D S %.J G P ",
"D W $.H B H B N ;.*.e.fXZX9Xs % $ 2 w t x { { v x v t r s /.4XmXAXZX1X` T a S F W J F $.F $.J W N y =.F H =.$...y M ..y S $.G M ",
"..o.;.G J H G S ( =XNXnX`.$ # $ 2 r v @.@.3.b.^.`.^.n.#.s r 2 u _.9X,.,.G.F.v._ D ..F F S $.J o.$.N 6 D *Xe.S ..S S G S N 0.`.J ",
"J $.$.J %.$.C 6.9XSXjX/.w % % r { 3.m.J.E._.:X2X6X8X`.^.O.{ s % 2 w 2 2 2 s O.b.G.D.2._ $.o.&.*.X.;.S C ).=X;...$...H H 7 * H ..",
"J J H G Z P G =XVX5Xy.}  .$ 2 [ +.1.D.G.L._.2X9XdXsX5X5XB.#.B.$ q r t w w 2 2 2 q a Q D.K.D.&.H S J H ;.w.7.$...$.:.o.J G 7 F J ",
"..F J P C G B T.:XO.s { s 2 t +.v.H.!.:X7XsXvXcXBXnXfXzX[..X/.q s [ [ { x t t w 2 # O u W O.1.<.F q.0.F ;.P y 0.=.:.:.K ( %.G P ",
"$.%.L P %.P H X.G L 6.G O.w s 1.H.*X,XdXvXcXMXnXVXBXnXmX6X7X[.e @.+.@.@.@.[ [ { r $ # r B S S P S ) 0.X.6 ..J 7.K $.4.H H $.G X.",
"K X.J X.P G H P P G -.-.O.r ^ J._.5XzXcXnXnXVXBXVXVXVXnX7XhX;Xi @.3.3.3.+.+.@.@.{ q % F H D P P $.B L 0.M P C H H y 6 w.=XC M H ",
"J X.P K :.J G M C P -.e.3.t @.:XgXfXMXMXVXBXVXBXVXVXNXnX7XjX;Xc b.J.J.H.H.H.b.3.+.e 2 a H S C %.$.C S ;.%.( 8.X.e.=Xe.).=X-.G H ",
"J P $.o.$.S & G B J Z ) `.x 2.5XDXgXNXVXCXVXVXBXnXCXVXnXqXxX-Xc J.J.H.L.L.E.J.H.q.v q a F r.:...X.H ;.q.%.P H J M =X`.e.8.;.8.J ",
"J B J X.$.=.L N H L 2._.0Xx n.zXgXcXNX5X*X_.Y.T.sXCXnXnXqXjX,Xc 1.H.H.H.H.H.L.H.b.E e &.N ;.4.S N H J D J & C K * N q.B J -.C J ",
"C X.F $.=.w.7.P G C _ {. Xx n.vXcXVXVXP.p 9 A ! dXNXNXcXqXsX;Xc 1.H.L.E.E.Y.Y.L.G.E i W y S K P 6 M Z m G w.& O * m K X.G =.X.K ",
"N H *.K J C H H t.P.2.~.N.{ n.vXcXVXVXL.V T V ` dXNXNXMXqXbX;Xc J.L.Y.W.E.W.!.R.K.E e a M H C P 8.).J S 6 B e.7.6 & C P B C X.B ",
"$.S S ..G G F M L H 7 F.+.{ (.MXcXVXNXE.Z T T ` dXVXNXcXwXzX4Xc b.Y.E.W.W.Y.R.Y.D.^ i o.K F P J P J J ;.P M K ;.;.P X.G K M G *.",
"*.$.S $.J ( -.) M P v.~.*.{ m.vXcXNXVXE.T T V ` dXVXNXnX6XhX4Xc 1.Y.Q.&X%X%XQ.W.K.^ i $.0.S G :.J S $.0.G X.M L X.N C M X.$.J $.",
"J ..F G H P G 7.B $.H.9.q.[ ^.cXnXVXNX_.I T ! ] dXVXVXMXqXxX-Xc J.E.W.W.%XW.Q.Q.Y.^ i _ $.;.P P 8.1X6.J :.0.I I P B N J *.0.J J ",
"K S %.4.B P e.q.-.N ( V V.[ (.cXcXVXNXQ.' _ T 9.dXVXNXMXqXvX5XE H.W.W.W.W.W.W.W.K.Q i W 4.`.w.K =.6.C K q.$.K K X.X.X.X.X.e.$.S ",
"o.P C T.F ( 0.X.X.J *.G E [ J.vXnXNXNX!.` ! _ F.gXVXNXMXqXhX4XR 2.Q.&X&X&X&X%X%XW.@.i R F J J ( M B $.S X.$.%.X.P P %.=.$.G =.X.",
"$.P C ( ( J H L ..$...S 3.@.(.cXMXVXNXdX1X<X,X<XsXNXNXMXqXzX;Xc L.Q.W.Q.%X%XQ.W.Y.^ i W G C o.$.$.=.;.G $.X.8.7.G P X.J 7.X.X.$.",
"%.P J G H H J.1.=.J H M m.[ (.BXnXNXNXMXcXcXcXvXnXVXNXnXqXvX4Xc H.Y.Y.R.R.R.R.Y.F.E v W ( C S C $.0.X.K ;.P G $.$.H G P P P H H ",
"J P J L ( &.m.n.=.( G 8 ^.[ n.cXcXNXNXVXVXVXVXVXNXVXNXnXqXjX,Xc 3.Y.W.W.W.Q.Q.Q.R.^ e ^ ;.( C G G J X.$.L $.H $.P B L X.L m P N ",
"G P L L Z r.(.m.r.;.H v.(.[ V.cXcXVXVXVXVXVXVXVXVXVXNXnXqXjX:Xv H.R.R.W.R.R.R.R.K.E i W $.W F G N $.$.X.) =.=.=.$.N X.P P & G P ",
"%.6.P G W W b.+.+.8.F.{.{.[ ^.cXnXVXCXVXVXVXVXVXVXNXnXzX6XkX>Xc G.L.K.Y.Y.Y.Y.Y.K.E i W J W ( H M J J N L =.<.W H B 6 J ..P G J ",
"L P S N %...o.+.N.#XpXI.c.} B.xXcXVXCXVXCXVXVXVXVXVXMXcX7XjX,Xc 1.Y.W.Q.W.Q.Q.W.Y.O.i ! %.E +.+...D F G G J P F S S N H Z G $.=.",
"H G J K P ;.W m.Z.{.$X` @.[ (.cXcXVXCXVXBXVXVXVXVXVXNXnX7XjX;Xc b.Y.Y.W.W.!.(.K.F.E c &.K ..@.@.O.....B B P ( H G =.M 6 H N Z =.",
"P ....*.F =.&.3.Z.@XA.Z.Z.} B.vXcXVXSXVXVXVXVXVXVXVXNXnXqXkX;Xv b.H.K.Y.R.E.I.U.F.Q c O...O.E c.,.*.4.D G N $...G =.H y G B H G ",
"%.H $.o...F m.Q ~ C.A.S.}.| n.vXnXNXSXZXCXVXVXVXVXVXNXMX7XjX4Xc 1.Y.Y.!.Q.!.~.~.F./ / ^ v.&.T / E H W 5.J C F J J ..H B 8 S $.G ",
"G X.*.$.o.%.@.z 3 i.f.f.Z.} (.cXcXVXCXCXVXVXMXVXVXVXNXnXqXjX,Xc 1.K.W.W.W.U.2.v.I.M.C./ v.h.k ~ +.q.1.F J =.o.o.D S L Z M 6 K N ",
"M J *.%.$.$.*.! k g k g b | B.vXnXVXCXZXVXVXVXVXVXNXNXnXqXkX;Xc J.Y.W.W.%XW.v.s.#X}.R F G g 5 ~ ~.! (.qX`.$...:.....$.L S M D F ",
"F J ..o.W J J Q a.U f j N.| B.vXcXVXCXVXVXVXVXVXVXVXNXMXqXjX5Xc b.R.Q.&X&XW.~.h.S.N.h ! C 0 k M.g.D.}.$X[.( J S X.J ..$.$.K J ..",
"S ..D o.$.&.$.o.~ M.A.k.Z.| (.BXcXNXVXCXCXVXBXVXSXVXMXMXqXjX,Xc 1.Y.Q.%XW.v.T a.h.a.k a.b.j.f.C.a.h.p.{.v.,.P K F =.J N P F N S ",
"F ..F F X.$.H S W f.'.k.h.| B.cXcXVXCXCXZXVXVXVXVXVXNXMXqXvX-Xc T.W.U.%XQ.~.9 < u.d.k #X#XC.d.d.U U l f.M.` J J ..J H G S J P F ",
"F S J J J G H S H / '.{.>X| ^.cXnXNXCXCXZXVXVXVXVXZXNXMXqXxX,XE G.%X&X&X&XW.Y g 1 < 4 }.s.z.l , 4 > , a.'.eX/.$.$.$.P =.J $.H P ",
"$.P P S B 7 D C ).>XM.C.0X} (.cXcXVXCXCXCXVXVXNXVXVXNXnXqXjX4XR 1.E.&X%X%XU.' g 4 < k z.z.a.p.b 4 ; h a.C.$X{.$.$.K H m M H $.=.",
"y N G J *.o.S C wXaXM.d.V.| ^.cXcXVXCXCXCXVXVXVXVXNXNXnXqXxX,XE J.Y.W.U.U.%Xj.' d.u.d.d.g.g.f.#X~ 3 4 ! ` Z.M.0.%.$.$.G N N y C ",
"D y 6 M K >.*.o.].@X'.C.N.} V.cXcXVXCXCXCXVXVXVXVXVXNXnXdXkX,Xc H.W.W.Q.W.R.F.~ d.a.g U i.4 b $Xs.4 h p 9 ~ R &.:.$.%.%.q.0.%...",
"=.K ;.N 6 X.>.>.;.~ A.C.s.} ^.xXdXNXCXCXVXVXVXVXVXVXBXnX7XhX,Xc 1.R.W.W.R.U.F.!.f.'.{.d d 1 > p.b k k n z R h C $.%.*.S y ;.%.$.",
"D ..7.$.D ..%.>.$./ A.l n [ B.jX:XeXSXCXCXVXVXVXCXVXNXnXqXkX;Xs b.Y.Y.Y.W.R.[.$Xs.f. Xl o : X d c.d k 5 p.+.p p ..$.$.F * * N P ",
"%.4.%.>.%.o.*.>.W U @Xg.n } B.kX5XfXSXZXCXVXVXVXCXCXVXnXqXkX;Xi b.E.E.Q.%X%X(.S.f.i.i.= - . @ > p.d f 4 i.N.4.$.X.:.$.>.%...$.X.",
"-.>.;.q.>.$...$.o.E C.d.e } V.BXcXVXCXCXCXVXVXVXZXVXBXnX6XhX>Xi +.Y.R.W.Y.Y.F.U f.i.a.j <     = < d , , i.@.C J S ..$.S ....*.G ",
"H *.%.( 5.$.B J S a s.u.5 } B.xXcXVXCXVXCXVXVXVXVXVXVXnX7XjX;Xc 3.F.Y.Y.W.W.U.' a.- g j g.g = : d d l z p.@.y & S S ..N 7 ..*.;.",
"J J F C =.y B B _.z f u.c.[ B.xXvXcXnXVXVXVXBXVXVXVXBXnXqXkX;Xv G.Y.R.E.Q.W.F.Y d., : j l.g.o = u.u.p.p.N.4.$.$.H K F F y y B ;.",
"N W F & y & M S eXi.d b Z. .B.kXcXBXcXcXvXvXcXcXnXNXnXcX7XhX4Xc b.Y.R.R.R.R.U.' z.;   l a., : = 1 u.i.i.h.Q M C ).%.o.%.F S S J ",
"S N 6 B 6 B 8.;.m.n 9 k /  .#.tXkXcXcXBXVXBXBXBXcXcXxXnX6XjX,Xc D.F.W.W.%X%X_.g 1 1 1 j 1   = o j g - g s.^ W * _ q.H q.>.$.o.*.",
"S ..* u S ( $.o.^ ,.$.9 n w #.tX3X3X3X3XtXhXxXcXBXBXBXBX3XtX-Xc L.W.%X&X&XW.{.> , u.u.u.d.< . . : = > p O.W H G M ;.C M S L y B ",
"C J D B ).0.G ..$.$.W 5 z t #.tXlXlXkXyXtXtX3X3X3X3X6XhX8XtX,Xc D.!.%X%XW.F.~ Y h j ; 1 k.u.d o X o g ~ / ,.&.H C H B M P 9.B F ",
"J K ..P r.0...%.H B ! v.XXpXpXiXyXyXyXuXkXlXlXkXlXhXtX3XOXlX,Xc 2.K.U.%X%XU.` _ Y =   : 1 d.k.g o + < h ~ ,.D F F D F A C 9.=X$.",
"F $.J C =.P J $.( ~ f.}.OXOXOX0XpXrXiXyXyXyXyXuXlXlXlXlXlXlX[.E H.Q.%X%XW.j.I 9 > = o 1 o - M.{.< < j 5 k ! S D F W H y M Z t.0.",
";.=.P ( G $.$.=.o.s.{.#X|.+X+XoXoX+XoXOX$XpXrXiXyXyXyXyXyXyX;Xc b.Q.%XY.F.! 9 h + < : d - o p.}.1 1 , 5 z C C a G H D S B M D =.",
"( ( =.0.G G ( ;.P.XXrXlXuXwX3XXXXXXX3XOX+X+X X+XOXOXpXrXrX`./.c 2.Y.F.F.Q F 9 k h k ; 1 g o d i.d = 4 p D V H C ! J F W S S S F ",
"$.) ) T.0.;.8.L P..X.X0X0XwXiXuXyXiXuX3X.X|.0X0XOX+XOXOX|.$ a c v.D._ _ F P $.2.1.H 3 0 3 > 3 4 < + 9 S H D S B B G H H o.$.$.( ",
"X.$.P ) w.w.6.t.,.G.^.]..X|.XXOX0XwXrXiXuXuXuXlXlXuX0X|.V.3 8 p ,._ C C ( w.r.0.=.C ( A 6 7 7 9 7 7 C D S F S G G S F -.0.*.o.*.",
"$.7.$.=.:.8.7.8.-.-.=.0.P.^./.].[.]..X[.2X0XwXyXuXuXwX[.O.3 p A G L =.6.w.8.6.) K * m =.S u C P Q G ( F $.$.W P H D D $.o.=.$.&.",
"S P M H $.X.8.=.L -.( P =.;.-.&.,.r.J.^.].].[.OXeXXXb.V a 8 M L _ 7.6.6.] =.$.J X...G J F F M G J J G J o.=.P P ( ( F P ( G J J ",
"H %.%.G P L G P P H -.=.$.7.-.( G =.=.) 0.P.(.[.(.b.7 W ( ( =.6.r.w.6.) =.$.%.$.$.$.S J J ..G N H J $.*.$.$.P H P ( $...H P W $.",
"G P =.P P H H B L J P ( 8.-.=.0.;.=.-.-.) -.;.8.<._ C ( e.7.7.w.6.8.C ) ;.J o.$.......X.P $.S N S P X.X.$.$.$.J r.( F o.o.J H ( ",
"$.=.G ) $.P ..S C J J -.$.$.( 7.<.7.r.) ] 6.8.=.-.w._ H 7.w.6.w.6.) 6.( ;.8.F J ......K $.X.S N H G G F L ( *.C J J G $.o.o.P H ",
"P P %.J $.J $.J C N F -.-.*.$.r.8.e.e.( 6._ 8.7.-.w.-.I ] 6.w.) *Xt.=.:.$.;.( *.........y G J P G J G $.G H H $.J =.$.o.$.o.=.$.",
"H H G F J =.J H M H ....%.( A =.-.6.=.r.=.L 7.8.7.8.6.) A P 7.I 9.8.:.;.-.K X.*.%.>.5.%.*.S & C M =.F G G F $.( 4.J $.*.&.*.*.J "
};
