/* XPM */
static char *result[] = {
/* columns rows colors chars-per-pixel */
"64 64 98 2 ",
"   c #2E201C",
".  c #362520",
"X  c #352824",
"o  c #3C2D26",
"O  c #3F2E29",
"+  c #452F27",
"@  c #402F2A",
"#  c #43322C",
"$  c #4A382F",
"%  c #4B3931",
"&  c #533E35",
"*  c #583F33",
"=  c #554137",
"-  c #5A4136",
";  c #56433B",
":  c #5D453B",
">  c #5E483E",
",  c #61473C",
"<  c #634A3E",
"1  c #6A4D3F",
"2  c #5D4941",
"3  c #644D42",
"4  c #6A4E42",
"5  c #675144",
"6  c #6D5245",
"7  c #66544B",
"8  c #6D5549",
"9  c #6F594C",
"0  c #735546",
"q  c #785747",
"w  c #765847",
"e  c #7A5947",
"r  c #735649",
"t  c #785748",
"y  c #75594B",
"u  c #7B5C4C",
"i  c #6E5D56",
"p  c #765D51",
"a  c #7B5E51",
"s  c #7E604E",
"d  c #776155",
"f  c #7E6152",
"g  c #77635A",
"h  c #7E6659",
"j  c #7F685B",
"k  c #815F4C",
"l  c #805F50",
"z  c #83624E",
"x  c #88654F",
"c  c #846452",
"v  c #896653",
"b  c #866855",
"n  c #8B6955",
"m  c #836658",
"M  c #85695A",
"N  c #8B6C5A",
"B  c #916D56",
"V  c #916E5A",
"C  c #8E715E",
"Z  c #977056",
"A  c #93725D",
"S  c #99745D",
"D  c #856E61",
"F  c #8B6F60",
"G  c #857164",
"H  c #8D7262",
"J  c #8C7569",
"K  c #8F7A6B",
"L  c #937563",
"P  c #997761",
"I  c #957866",
"U  c #9B7963",
"Y  c #977768",
"T  c #947B6C",
"R  c #9B7E6B",
"E  c #937E70",
"W  c #A07A64",
"Q  c #A17F6D",
"!  c #9C806F",
"~  c #9E8373",
"^  c #9B8977",
"/  c #A3836D",
"(  c #A8876E",
")  c #A28673",
"_  c #AE8D74",
"`  c #A08779",
"'  c #A48B7C",
"]  c #A98D7A",
"[  c #B48E74",
"{  c #AE927C",
"}  c #B39176",
"|  c #B4947C",
" . c #BA967A",
".. c #B39682",
"X. c #B69884",
"o. c #B99D87",
"O. c #B59D8A",
"+. c #B9A597",
/* pixels */
"s y m ) e w c n A y c b u v e z v U C 4 e x x z 0 6 f 6 < - u 0 0 k v v x k 0 k t b c c k k t 8 > 4 m y y y t c y c a r r v c u ",
"s z y L z < 5 r c b c s u u y z z 6 6 A { x s B c s c d 6 6 w w 3 0 w c c b x z t 6 c N n U y 0 u w G p u y y 8 y 8 a 6 p r l k ",
"y 6 6 , w y f 6 f A N u w d f z c w 1  ._ 0 w 0 z s u c C z n k u w u u a u u k v z u c u s q u k u p y y u r 3 3 4 3 8 6 y y 6 ",
"0 8 6 N I 1 y < y N M w 0 < s y y u = * 0 d s y u c u : > u w 4 0 z w t z v c x v c k { L y c 6 k a a c c b r y r 6 4 5 < ; P t ",
"y 3 y ; y z u 6 < d y < > > 1 s y c k 3 3 r u k z u u 0 0 u a u w u y t r v u q v z v k n m L k u y f v y f u r s N u u c O 3 b ",
"x v z u 6 c c 6 u s 0 6 6 0 1 d u c v v z u k u u u u m s c r f u 0 t a y y u 4 k x k v t a V v 6 l s t w u u 0 w y 0 0 v u 6 f ",
"w u c y 0 y 6 6 N n u s f u 6 0 u c y c k r u u y f f ; < y c c c u k 6 3 < u k u k q k u f u k 4 < c u u b l k : 6 z < 0 f y < ",
"k x N r u y 6 0 y f s c c f 9 y 8 v z y c f u H c c y y 6 6 > 6 < 6 0 z N c b a u x u u 0 z u z c 3 > w ' ^ 0 k 0 6 y 6 6 S | s ",
"u z v y b c 6 u 0 0 u 0 r 0 < y c v t y c u l r u y s c U S b s y < - 3 w v t y m c u u z k n v l N 0 8 ' O.N k c z y y : # s z ",
"u u y r 9 f r r h n u 0 u f 6 3 u c y y f c u & X J ) 6 < N b c b y N 6 1 y f y c c v k k l y y 0 u r M I D c u c B u s y - w s ",
"k u y f 8 8 6 a y M u c c a y 3 a c a y y t u 0 . X f s $ # 6 y w y H c 6 v b m 0 c k z k y l l u P P q M k < P M V A r f b 0 s ",
"z v y c N y r a 9 y m 8 y a 9 8 y y N r a y 6 v : H A v c s c s M S z b a y a c f y c u 6 u y a y f L a : c y F w b A t t c 9 s ",
"u k u l a 0 t a f r N M 3 3 8 y r a a f y c n V : 6 v w z z v 0 c V A S n c r u N a y n t t p a c 4 p J 3 u 8 t u : - I ..5 5 y ",
"u u u u L y r 3 8 a m Y i y y ) M 9 a c f t b b u 0 z 1 - k n b w n v u P f 6 n k v r t t r 8 v b 8 t N c s J z ! ..~ ] O.m 9 y ",
"u a c c c t & r 6 y 8 r 9 y 6 9 y 4 y c m y y M y w w w < < 1 C a u u 7 f 1 6 < k v y 3 y L V l f y n U v f y s < ..| T C C H u ",
"a 0 y k c m p 4 y p m 6 I 6 4 p 9 c t t M M 6 8 / n x x u w w y 4 u u & 3 = 4 6 0 k [ S 4 N S 6 4 y u w u ; 7 y + 6 U 6 u M r y ",
"4 l u c c R F u 8 8 3 > N N 6 u s f 0 u t M c $ f P y P N x z N 0 4 - 0 : 6 N N u c / c , 0 t a > 8 9 ; 8 Y &   % 3 t v r M u t ",
"4 y v u p 7 y y T R c J y ~ u 6 6 z y r a g c r 3 M 6 5 r y < 4 0 u $ < r f b z N V 4 < 3 y r a H ~ y 0 2 4 R C * & 6 a 4 8 f 0 ",
"c 0 0 u y 8 y 3 p y ; g 3 y d c M L a u 5 h b u y c 0 6 d K 6 y 8 y w 8 ) I u z v v u l t t u y a a u N a 3 y N N a a r t 3 r n ",
"v c t c u c m f 3 u u 8 a f y m ] Q a y 6 8 l v c z c 8 y K X.f u u u s I H a v w w r a I 0 w H y 0 c S t l 3 p l 6 7 4 a c y c ",
"k u u t p a 8 N 4 c u h C l a 3 d N b 0 y 3 s c b B v 3 5 9 ! C w c u 6 j f u a c u w f f M f u L +.F y V U 9 i y 6 4 y B P y u ",
"t 6 b A 6 a R U M 4 u 3 y N C N N M u k u f f y c v z t 0 5 9 c v m u a r z c c c n c t P _ R w D D 8 y W m y t l c c k k R c r ",
"z a 8 ) u a L c l u N r * a a V c m N u c u c c M n c c u w w s u y a N 0 y y C c b c t y u u c < 4 c r a v l l a f v m m y M a ",
"v y 8 a a r 3 p l l k r 9 h r a N c n u c c u u y c c c n c c f y y p I c f b 0 y y y u t 8 z f c b M r l a L F r a l k M k a c ",
"v a y r y y m p c a y 2 7 r t r y u l k z b y a l k c N P n f v z a y 4 n f r m u y u u c 0 y 8 b A f t M g r c c y r h a a y t ",
"a a u a f m c c h a y # r a 9 m b y M u v n v c a u t b c c c b x N c u c s u p y d y M M f 6 y r u a c a f y c a 8 r h y 2 a 4 ",
"y a p p 9 M L t F M y 4 4 k 3 r k u y u c c a l f c u u f r s u 0 a 3 y k a M k 6 u y y c c u 6 4 a c k m M c c a 4 c u a * r a ",
"m D f r l y b u l l a m a t 0 4 y u c M v c a y a f c u w d s u y b b t a y r f y r M y u u u r 4 u u 4 p m C s u 4 : u a a y y ",
"p y 0 4 v k u v k e v P u c 6 6 6 a a l c c c y L f u z z u y f r f M a y y y 6 p u y y c q 0 v u w q y 9 u u u t 0 6 r r 8 c m ",
"y r u q u F y k u v c q c k 0 4 t t r u u u M r u a 0 z z f p u c m r f c f u t r u w c w e w z k u k 6 6 s f y y c < : y 4 p m ",
"f u k v u b k n k e v k 3 0 u a r f t c p y y f u c c x c x c c a a b u b y c u 6 4 w z z x w C b M A 1 6 6 c s y f u > 0 6 y 8 ",
"v t c v k 0 u b v V S n v 0 % r 2 a y r y t c a A s c M n M b u r r 6 u a b y t 3 w u u x u < y u u w n u 0 y u u f y 4 ; w c 9 ",
"w z v v z z 1 k u M v b c k 4 0 > 7 m y y y u c y f f y w b s s s y m ~ y u c n A y z x s x 0 c c U N 1 w v x z w 0 a 8 3 - u 4 ",
"3 u N c v n v z q 4 c N n U u 6 u y D p y y r 6 y 8 y 6 y 0 s z u z y H e 3 4 6 b c m s y s u z z 6 0 I | c u V z u m p 6 4 w w ",
"u u u z u u u k v k z c a k w u k u y a y k r 3 3 4 3 6 6 u d 6 y 6 4 < w u u 6 f C N u y y s s x 6 6 } ( 0 t w z u u b c q u z ",
"0 k 0 x c n c v v v u F b a c 0 u u c c m v r y r 8 6 5 < ; S 0 6 r 6 C P 3 y 3 u M M r 6 5 s y w s > x z p s q u c y 4 u u 6 4 ",
"w k q w z c w 6 u c u N u M H z e y z b u y u 8 a N u u c O 1 M 0 3 y = y s u 6 3 a y 3 < < 3 c u z u s c 0 k u l u y y 0 u u u ",
"w w u u y t y 0 y u < u w u A x 6 c z y u y u w y y w 0 n y 6 s v x x u 0 c z 9 u u 0 6 6 0 3 y s z c u v v n z c l a c u c r a ",
"c u u 6 5 > 0 0 u w s w z c u z 4 < f u w z x k , 4 u < 0 f y 1 0 f c r 6 y 6 6 C n u s f y 8 r u c u u q A v c c t y 2 2 y c c ",
"< 6 6 z N x 0 6 s < c x z z u z c 3 > w L N w u 0 0 y 0 6 A | s z c n y u y 6 0 y f s c c f 8 p 9 s r u V b c N c c b 0 6 6 < 8 ",
"t < - 3 y B v x U S v n x k N n c B y 3 H f f c c k y y : # s z e x c y M c 6 y t 0 u 0 r 0 3 y a u 6 3 : t 6 c V v v N U S b u ",
"b u N 6 : k B n A S n v z k _ s < l 6 u u f u z c B u s y - w s s w y 0 r a r t c M u 0 y c 3 y U L P w f 0 & 0 c c n 0 , B v c ",
"0 y H v w u n B v n B Z x k w < 0 r 4 6 z w 1 P m V B y f v 0 u z u s s 8 6 4 a a M y t t y u c v N N z z r : < k c z u % @ 4 a ",
"v S c n B x v B z v x k x n u w r f F c z 6 w H w b C y y c 9 f c c y f M a y u r 6 8 t t r 4 t v 0 v c x v S v c V c n v k v a ",
"M B C U N c s x x z k f 5 0 u u 3 , 6 c n N 8 t z < > L ..6 3 y w z u c u 0 p a a r 1 t k u z t u U c k v z 8 a q k c 0 z z n 0 ",
"w n v u S z 6 u 1 0 s 1 0 u y u z 0 1 u n r H c c z s { O.M 8 u u f k q L y y 3 8 a k k l e c k 0 u x z z u < % t 4 k 4 : k v N ",
"y u u 7 f 1 6 5 s u s C y s z s v c 3 - 0 N 7 u w u y I H C L y u a c c c 6 & r 4 a c v M M z c k 1 u v u c c c y t q w < < 6 N ",
"6 s u & 1 = < 1 0 w u n v z z k v v n u 0 k N k u y f 0 y M r y y 8 y z c b p 4 a t u r t c v v z u u u w y 5 9 ! n x z u w r u ",
"0 4 : 1 , 6 C N u f 0 6 e u w u k z z z x s c 6 O < u x r M u r 8 c y c m R N l 0 k u c M u u a 0 u c z z u z $ f P y U B c s N ",
"0 u $ < 8 f c z A C f x w 0 < s z z k e n z c u : & 6 y 4 8 c 0 4 y n u p 9 y y m u v N ( v 0 y u u k u x b u y 3 M 5 5 0 a < 6 ",
"8 u w 6 ) I t z x x c v x z u k x z x z e b b b b f f y y 3 r n z 0 t u r r 4 y L y 8 a r a l r u y u M f C c u y c 0 5 d T 1 s ",
"u y k u I L u v y 0 y u x z k x x z b b w 6 w s 1 y x u c v y c v c t k k u 0 u N y 6 t r 3 a t 6 0 c p u v z c c s c 0 y K X.z ",
"u k u 6 j f a c b u u y e z v b s 0 1 6 < d C z s 6 0 z s A t a u e k e x k u e a C 3 4 r y t r N c t t 6 a c c n V v 4 5 y E L ",
"M b u f y c f c c n n c w e s c s y B I u > s e w y f f y R b 0 y 0 v V x u e k u y y 4 r y y y c a u v c y k y f c k w 8 3 y b ",
"u y k N 6 y y N c n c u t s s s 9 s ' o.9 > 6 u b z C f m y M a a a 9 ) u k u k t r y u y a y l u b M y c k c f M n c c u w 0 y ",
"u y y T c z M 0 w y y y y 6 s z c 0 y f 6 y N u b u z u M z u c c u 8 p k c e l V l u k t c l c N c v k c c k a y c c b v b c f ",
"u a y 3 m c 6 m u y a u c t r r b L m y u z y 6 l l 6 m a a a t v a a r t v c N y 8 L u w 6 u r u y c u k v u a z l z N P n c b ",
"b N c z c l a a y f y m m a 8 8 8 u u 0 y r 1 w y u y a y 2 a 4 y a y a f f y y q o > M q 4 9 c c y M s v M b c k u u c c c c c ",
"t y 3 t k u M k 6 s y y c c u 6 1 s x s z c 6 , 4 < 9 a p * r a r f p p r t u u c u r u k a 3 r a u t u c c u a c c u a f 9 s u ",
"y b n y a y y a y r b y y k u y 5 u w 0 c b c 0 t 0 * m m t y u m F a p f u v c c l t u e t 0 4 u u f n v c a y p f c u w f s s ",
"r f M a a t y 4 d u y y b q w v u w w w 8 y z y t t 3 a L a a m y a > y M u l c e k k a z c 0 4 6 a l a c c z u L f u s z s y s ",
"c m r f c a a r 0 u w f t w w s s s s 1 6 a c w t m 3 - m M a h y r p y c A y k k x k t c l 0 4 t y t u d u M r u u 0 z z s d y ",
"f u b u v a c y 6 4 w z z z u N m n A 6 r 5 f s r c u > r p M r ^ F q v e c f n l u x k < r a a r u 0 c y y y f s c c x x c c c ",
"y y 6 u y b a y 3 y u k z u < y w u w v u 6 w f u z a 6 & r v 7 m M z x k 0 c v v B S x v 0 % 8 3 f u r 0 u c f C f c N c n b s "
};
