/* XPM */
static char *result[] = {
/* columns rows colors chars-per-pixel */
"64 56 142 2 ",
"   c #80766F",
".  c #867D75",
"X  c #887E75",
"o  c #897F76",
"O  c #8B8178",
"+  c #8F857C",
"@  c #90867D",
"#  c #938A81",
"$  c #948B82",
"%  c #9A8F86",
"&  c #999089",
"*  c #9B928A",
"=  c #9D938B",
"-  c #9E948B",
";  c #A1978F",
":  c #A29890",
">  c #A09993",
",  c #A69B93",
"<  c #A69C94",
"1  c #A89D94",
"2  c #A89E96",
"3  c #ABA198",
"4  c #ABA199",
"5  c #AEA49C",
"6  c #AEA69F",
"7  c #B0A69E",
"8  c #B2A79E",
"9  c #B4AAA2",
"0  c #B5ABA2",
"q  c #B6ACA4",
"w  c #B7ADA4",
"e  c #B8ADA5",
"r  c #BAAFA7",
"t  c #B7B1AB",
"y  c #BAB0A8",
"u  c #BBB1A9",
"i  c #BCB2AA",
"p  c #BDB3AB",
"a  c #BDB3AC",
"s  c #BEB5AD",
"d  c gray73",
"f  c #BBBBBB",
"g  c #BCBCBC",
"h  c gray74",
"j  c gray",
"k  c gray75",
"l  c #C3BBB4",
"z  c #C4BBB4",
"x  c #C5BDB6",
"c  c #C8BFB7",
"v  c #CAC2BB",
"b  c #CAC3BE",
"n  c #CCC5BF",
"m  c #CDC5BF",
"M  c #C0C0C0",
"N  c #C1C1C1",
"B  c gray76",
"V  c #C3C3C3",
"C  c gray77",
"Z  c #C5C5C5",
"A  c #C6C6C6",
"S  c gray78",
"D  c #C8C8C8",
"F  c gray79",
"G  c #CACACA",
"H  c #CBCBCB",
"J  c gray80",
"K  c #CDCDCD",
"L  c #CECECE",
"P  c gray81",
"I  c #D1CBC6",
"U  c #D1CBC7",
"Y  c #D6D1CE",
"T  c #D7D2CE",
"R  c #D7D3CF",
"E  c #D0D0D0",
"W  c gray82",
"Q  c #D2D2D2",
"!  c LightGray",
"~  c #D7D4D1",
"^  c gray83",
"/  c #D5D5D5",
"(  c gray84",
")  c #D7D7D7",
"_  c #DAD5D0",
"`  c #DAD6D2",
"'  c #DAD6D3",
"]  c #D8D8D8",
"[  c gray85",
"{  c #DADADA",
"}  c gray86",
"|  c #DDDAD8",
" . c #DEDBD9",
".. c gainsboro",
"X. c #DDDDDD",
"o. c gray87",
"O. c #DFDFDF",
"+. c #E0DDDA",
"@. c #E0DEDC",
"#. c #E1DEDC",
"$. c #E2E0DE",
"%. c gray88",
"&. c #E1E1E1",
"*. c #E2E2E2",
"=. c gray89",
"-. c #E4E2E0",
";. c #E4E2E1",
":. c #E5E3E1",
">. c #E6E4E3",
",. c #E6E5E3",
"<. c #E4E4E4",
"1. c gray90",
"2. c #E7E5E4",
"3. c #E6E6E6",
"4. c #E7E7E7",
"5. c #E8E7E6",
"6. c #E9E8E7",
"7. c gray91",
"8. c #E9E8E8",
"9. c #E9E9E9",
"0. c #EAE9E9",
"q. c #EAEAEA",
"w. c #EBEBEA",
"e. c gray92",
"r. c #ECEBEB",
"t. c #EBECEC",
"y. c #ECECEC",
"u. c #EDEDEC",
"i. c #ECECED",
"p. c #ECEDED",
"a. c gray93",
"s. c #EDEEEE",
"d. c #EEEEEE",
"f. c #EFEFEF",
"g. c gray94",
"h. c #F1F1F1",
"j. c gray95",
"k. c #F3F3F3",
"l. c #F4F4F4",
"z. c gray96",
"x. c #F6F6F6",
"c. c None",
/* pixels */
"c.c.c.c.c.c.c.c.c.c.c.c.c.c.c.c.c.c.c.c.c.c.c.c.c.c.c.c.c.c.c.c.c.c.c.c.c.c.c.c.c.c.c.c.c.c.c.c.c.c.c.c.c.c.c.c.c.c.c.c.c.c.c.c.",
"c.c.c.c.c.c.c.c.c.c.c.c.c.c.c.c.c.c.c.c.c.c.c.c.c.c.c.c.c.c.c.c.c.c.c.c.c.c.c.c.c.c.c.c.c.c.c.c.c.c.c.c.c.c.c.c.c.c.c.c.c.c.c.c.",
"c.c.c.c.c.c.c.c.c.c.c.c.c.c.c.c.c.c.c.c.c.c.c.c.c.c.c.c.c.c.c.c.c.c.c.c.c.c.c.c.c.c.c.c.c.c.c.c.c.c.c.c.c.c.c.c.c.c.c.c.c.c.c.c.",
"c.c.c.c.c.c.c.c.c.c.c.c.c.c.c.c.c.c.c.c.c.c.c.c.c.c.c.c.c.c.c.c.c.c.c.c.c.c.c.c.c.c.c.c.c.c.c.c.c.c.c.c.c.c.c.c.c.c.c.c.c.c.c.c.",
"c.c.c.c.c.c.c.c.c.c.c.c.c.c.c.c.c.c.c.c.c.c.c.c.c.c.c.c.c.c.c.c.c.c.c.c.c.c.c.c.c.c.c.c.c.c.c.c.c.c.c.c.c.c.c.c.c.c.c.c.c.c.c.c.",
"c.c.c.c.c.c.c.c.c.c.c.c.c.c.c.c.c.c.c.c.c.c.c.c.c.c.c.c.c.c.c.c.c.c.c.c.c.c.c.c.c.c.c.c.c.c.c.c.c.c.c.c.c.c.c.c.c.c.c.c.c.c.c.c.",
"c.c.c.c.c.c.c.c.c.c.c.c.c.c.c.c.c.c.c.c.c.c.c.c.c.c.c.c.c.c.c.c.c.c.c.c.c.c.c.c.c.c.c.c.c.c.c.c.c.c.c.c.c.c.c.c.c.c.c.c.c.c.c.c.",
"c.c.c.c.c.c.c.c.c.c.c.c.c.c.c.c.c.c.c.c.c.c.c.c.c.c.c.c.c.c.c.c.c.c.c.c.c.c.c.c.c.c.c.c.c.c.c.c.c.c.c.c.c.c.c.c.c.c.c.c.c.c.c.c.",
"c.c.c.c.c.c.c.c.c.c.c.c.c.c.c.c.c.c.c.c.c.c.c.c.c.c.c.c.c.c.c.c.c.c.c.c.c.c.c.c.c.c.c.c.c.c.c.c.c.c.c.c.c.c.c.c.c.c.c.c.c.c.c.c.",
"c.c.c.c.c.c.c.c.c.c.c.c.c.c.c.c.q.q.q.q.q.9.7.9.q.q.9.9.9.c.c.c.c.c.c.c.c.c.c.c.c.c.c.c.c.c.c.c.c.c.c.c.c.c.c.c.c.c.c.c.c.c.c.c.",
"c.c.c.c.c.c.c.c.c.c.c.c.y.e.e.e.e.e.e.e.e.e.q.e.e.e.q.q.q.9.9.9.c.c.c.c.c.c.c.c.c.c.c.c.c.c.c.c.c.c.c.c.c.c.c.c.c.c.c.c.c.c.c.c.",
"c.c.c.c.c.c.c.c.c.c.d.a.y.e.y.y.e.e.t.y.y.p.a.a.i.y.e.e.e.q.e.q.q.q.e.c.c.c.c.c.c.c.c.c.c.c.c.c.c.c.c.c.c.c.c.c.c.c.c.c.c.c.c.c.",
"c.c.c.c.c.c.c.c.c.f.a.y.a.y.y.r.y.y.8.-. .' R ~ | >.w.y.y.y.y.e.e.e.e.y.c.c.c.c.c.4.7.q.e.9.7.y.c.c.c.c.c.c.c.c.c.c.c.c.c.c.c.c.",
"c.c.c.c.c.c.c.c.g.d.a.a.a.y.y.y.6.` n z a 9 2 = * 6 b #.e.y.y.y.y.e.y.y.a.c.c.=.4.9.4.7.q.7.4.y.h.j.c.c.c.c.c.c.c.c.c.c.c.c.c.c.",
"c.c.c.c.c.c.c.g.f.a.d.a.a.y.a.0.I s s p e 5 ; # O $ 4 v +.i.a.a.a.a.d.a.d.a.} *.3.4.7.7.q.7.4.a.g.h.h.c.c.c.c.c.c.c.c.c.c.c.c.c.",
"c.c.c.c.c.c.c.f.d.a.d.y.a.y.a.2.l q i y 0 3 - @ . + , c _ u.y.a.a.f.f.a.g.9.{ &.3.4.7.4.7.7.4.y.g.h.g.d.e.7.7.7.1.%.} c.c.c.c.c.",
"c.c.c.c.c.c.c.g.a.a.a.y.y.y.a.e.T s r w 8 1 % o   X < m :.a.a.a.d.f.f.d.g.*.[ &.3.4.7.7.4.4.4.y.g.h.g.a.9.3.3.<.&.X.{ c.c.c.c.c.",
"c.c.c.c.c.c.c.j.a.y.y.a.y.y.a.a.e.#.U x u 7 : & > t Y 5.s.d.d.d.f.f.d.g.y.[ ] &.1.4.4.7.7.4.4.y.f.g.f.y.7.4.3.=.&.X.{ c.c.c.c.c.",
"c.c.c.c.c.c.c.j.q.e.e.y.y.y.y.a.a.d.a.0.,.$.@.;.6.u.d.d.d.d.d.f.f.f.g.d.&.( ) &.<.3.7.7.7.3.3.y.f.f.d.e.7.4.3.=.%.o.} c.c.c.c.c.",
"c.c.c.c.c.c.c.j.<.O.1.9.e.y.y.y.y.y.a.a.s.d.d.d.d.s.a.a.d.d.d.f.g.f.e.<.o.( ] %.1.3.7.7.7.3.3.e.d.d.a.q.4.4.3.<.%.o.} c.c.c.c.c.",
"c.c.c.c.c.c.c.k.<.] E ! o.3.q.y.y.y.a.a.a.a.a.a.a.a.a.d.d.d.f.d.e.7.1.*.X./ ) %.1.3.3.7.4.<.1.e.a.a.y.9.4.4.3.<.&.O.X.c.c.c.c.c.",
"c.c.c.c.c.c.c.l.1.] P S A A K ] O.<.4.9.e.y.y.y.y.y.y.e.e.9.7.3.3.3.<.=.o./ ( %.<.1.3.7.3.=.1.q.y.a.e.7.4.4.3.<.*.o...c.c.c.c.c.",
"c.c.c.c.c.c.c.l.3.] L S C j h V S J E ! ] { ..X.o.%.=.*.=.3.3.4.3.1.1.*.X./ ) %.<.3.4.4.1.*.<.9.e.y.q.7.4.4.3.<.&.O.o.c.c.c.c.c.",
"c.c.c.c.c.c.c.j.<.] K D Z k k V S F H K W ^ ) { { ..*.&.=.1.3.3.3.3.<.&...^ ) O.<.1.3.3.=.%.*.4.q.q.9.4.3.4.3.1.&.O.X.c.c.c.c.c.",
"c.c.c.c.c.c.c.k.<.] P D C k j V A D H L P ^ ) [ { O.&.=.=.<.3.3.3.3.<.&.X.^ ( O.<.3.1.<.*.O.&.3.9.9.7.3.4.4.3.<.*.O.X.c.c.c.c.c.",
"c.c.c.c.c.c.c.l.3.] L S C M j B A F J P E Q ] { ..o.o.=.<.<.1.3.3.1.=.&...^ ) %.<.1.1.=.%.X.%.1.7.7.4.3.4.4.1.<.&.o...c.c.c.c.c.",
"c.c.c.c.c.c.c.k.<.] L F C M j V S F J L E ^ ( ] ..X.&.&.<.<.1.4.3.1.=.&...^ ( o.=.1.3.=.O...O.<.3.3.3.1.4.3.1.<.&.o.c.c.c.c.c.c.",
"c.c.c.c.c.c.c.k.1.[ P D V k h B A F J L E Q / ] ..} O.&.<.<.<.<.1.<.<.&.} ^ ( O.<.=.<.*.o.} X.*.1.3.3.3.4.3.3.<.&.o.c.c.c.c.c.c.",
"c.c.c.c.c.c.c.z.1.] L D C k g B Z F H L E Q ( { } X.O.&.=.<.1.3.1.1.<.%.} ! ( O.=.<.=.=.X.[ } *.<.<.=.1.4.3.<.<.&.O.c.c.c.c.c.c.",
"c.c.c.c.c.c.c.z.4.[ P F V k h N A D H K E ! ( [ { X.O.&.*.=.1.1.3.=.=.&...^ ( O.=.<.*.%.X.) } %.*.<.=.<.1.4.<.=.%.O.c.c.c.c.c.c.",
"c.c.c.c.c.c.c.l.3.] P D C k g N Z D G L E ! / [ } ..X.&.*.=.<.1.<.=.=.O.} ! / O.*.=.*.o.{ ( { o.&.*.*.<.1.3.<.*.&.o.c.c.c.c.c.c.",
"c.c.c.c.c.c.c.k.3.[ P D Z M h B Z D G L P ! ^ ] [ ..o.%.*.=.1.<.<.<.=.O.} ! / o.*.=.%.o.{ ( [ X.O.%.&.=.1.3.1.*.O.O.c.c.c.c.c.c.",
"c.c.c.c.c.c.c.x.3.] P D C h f M Z D G J E ! / ] [ ..o.%.=.<.*.=.<.=.*.O.{ ! / X.*.=.&.o.) ! ) } X.O.O.*.<.1.<.&.O.o.c.c.c.c.c.c.",
"c.c.c.c.c.c.c.z.3.] L S C j j B A F H L W W ^ [ { ..o.O.=.*.=.<.=.=.&.O.{ ! / o.&.*.%...) W / { ..X.X.&.=.<.<.&.%.o.c.c.c.c.c.c.",
"c.c.c.c.c.c.c.j.3.] L F V k h M C D H L E Q ! ) } ..O.O.*.*.=.<.<.*.*.O.{ Q / X.&.%.O.{ / E / ] { } } %.=.=.=.%.o.X.c.c.c.c.c.c.",
"c.c.c.c.c.c.c.l.3.] P A V k f M Z D G J P ! ^ / } ..X.%.&.<.<.*.=.=.&.O.{ Q ^ X.%.&.O.{ / E ^ ) [ ] [ o.&.*.&.%.X.X.c.c.c.c.c.c.",
"c.c.c.c.c.c.c.z.4.[ E D Z k g N C A D J E W / / ] X.o.%.%.*.=.=.=.*.%.O.[ Q / X.%.%.o.{ ^ E ! ) ) ) ] X.%.&.%.O...} c.c.c.c.c.c.",
"c.c.c.c.c.c.c.z.4.[ P S C k f M Z S H J E W ! ] ] } o.X.%.*.*.=.=.*.&.o.[ Q / o.&.%.X.[ ! E ! ( ) ( ) } O.%.%.X.....c.c.c.c.c.c.",
"c.c.c.c.c.c.c.k.1.[ P D C k f k Z S G J L Q ^ ) ] { O.o.%.&.*.=.*.*.%.o.[ Q / o.c.c.c.c.c.c.c.c./ ) ] ..X.o.o.X...{ c.c.c.c.c.c.",
"c.c.c.c.c.c.c.z.4.{ P S V k g M C A F J K W / ) ] ....&.O.%.=.*.*.*.%.o.[ Q ^ c.c.c.c.c.c.c.c.c.c.c.c.c.c.c.[ c.c.c.c.c.c.c.c.c.",
"c.c.c.c.c.c.c.x.4.[ P F C j g k Z S F H L E / ) [ } ..O.&.&.*.=.=.*.%.o.[ Q c.c.c.c.c.c.c.c.c.c.c.c.c.c.c.c.c.c.c.c.c.c.c.c.c.c.",
"c.c.c.c.c.c.c.l.4.[ E F C j f M Z S F H L Q ^ ( [ { X.X.&.%.&.=.=.&.%.o.] W c.c.c.c.c.c.c.c.c.c.c.c.c.c.c.c.c.c.c.c.c.c.c.c.c.c.",
"c.c.c.c.c.c.c.l.7.[ P D V j g k V S G J L E ! ( ] [ ..X.&.*.*.*.&.&.O.X.( c.c.c.c.c.c.c.c.c.c.c.c.c.c.c.c.c.c.c.c.c.c.c.c.c.c.c.",
"c.c.c.c.c.c.c.c.7.{ P D V k g k V A F H K E ^ ] ] { ....O.O.&.=.*.&.%.X.) c.c.c.c.c.c.c.c.c.c.c.c.c.c.c.c.c.c.c.c.c.c.c.c.c.c.c.",
"c.c.c.c.c.c.c.c.3.{ E F V k g k V S F J P E Q ( ] { } o.O.%.*.*.&.O.o.} [ c.c.c.c.c.c.c.c.c.c.c.c.c.c.c.c.c.c.c.c.c.c.c.c.c.c.c.",
"c.c.c.c.c.c.c.c.c.[ E D C k f j V A D K K Q ! ( ) [ { X.o.O.&.&.%.&.%...c.c.c.c.c.c.c.c.c.c.c.c.c.c.c.c.c.c.c.c.c.c.c.c.c.c.c.c.",
"c.c.c.c.c.c.c.c.c.c.P D V j d j B C S G L P W / ( [ } X.O.&.%.&.&.&.O.c.c.c.c.c.c.c.c.c.c.c.c.c.c.c.c.c.c.c.c.c.c.c.c.c.c.c.c.c.",
"c.c.c.c.c.c.c.c.c.c.c.c.C h f j C S G H J P ! ) ] ] } X.%.O.O.&.&.c.c.c.c.c.c.c.c.c.c.c.c.c.c.c.c.c.c.c.c.c.c.c.c.c.c.c.c.c.c.c.",
"c.c.c.c.c.c.c.c.c.c.c.c.c.c.d k V A F H P P E / ) ) } ..O.o.c.c.c.c.c.c.c.c.c.c.c.c.c.c.c.c.c.c.c.c.c.c.c.c.c.c.c.c.c.c.c.c.c.c.",
"c.c.c.c.c.c.c.c.c.c.c.c.c.c.c.c.c.c.c.G K P E Q { c.c.c.c.c.c.c.c.c.c.c.c.c.c.c.c.c.c.c.c.c.c.c.c.c.c.c.c.c.c.c.c.c.c.c.c.c.c.c.",
"c.c.c.c.c.c.c.c.c.c.c.c.c.c.c.c.c.c.c.c.c.c.c.c.c.c.c.c.c.c.c.c.c.c.c.c.c.c.c.c.c.c.c.c.c.c.c.c.c.c.c.c.c.c.c.c.c.c.c.c.c.c.c.c.",
"c.c.c.c.c.c.c.c.c.c.c.c.c.c.c.c.c.c.c.c.c.c.c.c.c.c.c.c.c.c.c.c.c.c.c.c.c.c.c.c.c.c.c.c.c.c.c.c.c.c.c.c.c.c.c.c.c.c.c.c.c.c.c.c.",
"c.c.c.c.c.c.c.c.c.c.c.c.c.c.c.c.c.c.c.c.c.c.c.c.c.c.c.c.c.c.c.c.c.c.c.c.c.c.c.c.c.c.c.c.c.c.c.c.c.c.c.c.c.c.c.c.c.c.c.c.c.c.c.c.",
"c.c.c.c.c.c.c.c.c.c.c.c.c.c.c.c.c.c.c.c.c.c.c.c.c.c.c.c.c.c.c.c.c.c.c.c.c.c.c.c.c.c.c.c.c.c.c.c.c.c.c.c.c.c.c.c.c.c.c.c.c.c.c.c.",
"c.c.c.c.c.c.c.c.c.c.c.c.c.c.c.c.c.c.c.c.c.c.c.c.c.c.c.c.c.c.c.c.c.c.c.c.c.c.c.c.c.c.c.c.c.c.c.c.c.c.c.c.c.c.c.c.c.c.c.c.c.c.c.c.",
"c.c.c.c.c.c.c.c.c.c.c.c.c.c.c.c.c.c.c.c.c.c.c.c.c.c.c.c.c.c.c.c.c.c.c.c.c.c.c.c.c.c.c.c.c.c.c.c.c.c.c.c.c.c.c.c.c.c.c.c.c.c.c.c."
};
