/* XPM */
static char *result[] = {
/* columns rows colors chars-per-pixel */
"64 64 230 2 ",
"   c #02000B",
".  c #050615",
"X  c #020B2D",
"o  c #00112E",
"O  c #0C172A",
"+  c #001636",
"@  c #011A36",
"#  c #01163B",
"$  c #011C3C",
"%  c #030C31",
"&  c #0D202D",
"*  c #132428",
"=  c #04213E",
"-  c #09243D",
";  c #082336",
":  c #011E42",
">  c #001E4A",
",  c #042444",
"<  c #092643",
"1  c #052946",
"2  c #0B2B45",
"3  c #03264A",
"4  c #09274A",
"5  c #042B4C",
"6  c #0A2D4B",
"7  c #122E46",
"8  c #102E4B",
"9  c #1A2D41",
"0  c #06304E",
"q  c #0C314D",
"w  c #143145",
"e  c #12334C",
"r  c #14394F",
"t  c #1D3B4D",
"y  c #1E3749",
"u  c #052D51",
"i  c #0A2E51",
"p  c #032A5C",
"a  c #063253",
"s  c #0C3453",
"d  c #0D3955",
"f  c #053459",
"g  c #0C3659",
"h  c #07395B",
"j  c #0D3B5B",
"k  c #023953",
"l  c #123553",
"z  c #133A55",
"x  c #1A3C54",
"c  c #113659",
"v  c #133D5B",
"b  c #1A3E5A",
"n  c #193551",
"m  c #23394D",
"M  c #283C53",
"N  c #053A64",
"B  c #0D3C62",
"V  c #0C3D6A",
"C  c #083865",
"Z  c #123E61",
"A  c #123F6B",
"S  c #0E425E",
"D  c #134055",
"F  c #1C4156",
"G  c #15425C",
"H  c #1A435D",
"J  c #1A495D",
"K  c #23455B",
"L  c #24495D",
"P  c #294757",
"I  c #324A5C",
"U  c #39545B",
"Y  c #0E4263",
"T  c #0D466A",
"R  c #144463",
"E  c #1A4563",
"W  c #154965",
"Q  c #1C4A64",
"!  c #14466A",
"~  c #1B4768",
"^  c #154B6B",
"/  c #1B4C6A",
"(  c #1D5167",
")  c #1D516D",
"_  c #0B4876",
"`  c #154C72",
"'  c #1A4E72",
"]  c #134D7B",
"[  c #184F7A",
"{  c #0F517A",
"}  c #1C5374",
"|  c #1C557B",
" . c #155A7A",
".. c #1E5A7C",
"X. c #195777",
"o. c #224B64",
"O. c #294E62",
"+. c #224D6A",
"@. c #204560",
"#. c #255366",
"$. c #2C5363",
"%. c #23536C",
"&. c #2B556B",
"*. c #2D5A6C",
"=. c #27586C",
"-. c #345C6E",
";. c #3A5E6C",
":. c #365965",
">. c #235572",
",. c #2A5673",
"<. c #245A74",
"1. c #2B5B73",
"2. c #22557A",
"3. c #245C7B",
"4. c #2A5E7A",
"5. c #325E73",
"6. c #365E76",
"7. c #39626C",
"8. c #2D6176",
"9. c #25637D",
"0. c #2D627C",
"q. c #2D687F",
"w. c #336274",
"e. c #3B6375",
"r. c #33647D",
"t. c #3B667C",
"y. c #35697E",
"u. c #3C6C7F",
"i. c #3B757E",
"p. c #45676E",
"a. c #43697A",
"s. c #43707C",
"d. c #4C7575",
"f. c #56757B",
"g. c #526364",
"h. c #606D72",
"j. c #6B6D68",
"k. c #58847D",
"l. c #195781",
"z. c #1B5A84",
"x. c #165B8B",
"c. c #0F528E",
"v. c #235C81",
"b. c #205E8D",
"n. c #1B638C",
"m. c #1F6B85",
"M. c #186798",
"N. c #246282",
"B. c #2D6583",
"V. c #2F6986",
"C. c #256688",
"Z. c #2D678A",
"A. c #2C6B8B",
"S. c #26688D",
"D. c #326683",
"F. c #336B84",
"G. c #396C85",
"H. c #336D8A",
"J. c #3A6D89",
"K. c #376686",
"L. c #36718B",
"P. c #3D758C",
"I. c #3C7C8F",
"U. c #397484",
"Y. c #256A95",
"T. c #2C6C92",
"R. c #336E92",
"E. c #327294",
"W. c #3B7492",
"Q. c #3C7995",
"!. c #347B9A",
"~. c #3C7B9B",
"^. c #377995",
"/. c #2E7490",
"(. c #3A7DA2",
"). c #2F7AA2",
"_. c #447285",
"`. c #42748A",
"'. c #4C7A8C",
"]. c #497687",
"[. c #517A89",
"{. c #447C94",
"}. c #417E9B",
"|. c #487E9A",
" X c #477892",
".X c #527D94",
"XX c #3C8498",
"oX c #2F81AC",
"OX c #3988A9",
"+X c #41809D",
"@X c #48839C",
"#X c #4F8195",
"$X c #538296",
"%X c #5B8A98",
"&X c #4C929E",
"*X c #5D838C",
"=X c #63828A",
"-X c #68939F",
";X c #4988A6",
":X c #528AA3",
">X c #5A8BA3",
",X c #538CAD",
"<X c #4C91AD",
"1X c #5492AE",
"2X c #5C94AB",
"3X c #5993A5",
"4X c #4C95B1",
"5X c #4A9FB9",
"6X c #5B9BB4",
"7X c #649AAA",
"8X c #6798A5",
"9X c #729CA3",
"0X c #689EB2",
"qX c #5CA3BC",
"wX c #5FA0B7",
"eX c #69A6B7",
"rX c #76A9BA",
"tX c #3997C9",
"yX c #3FABDC",
"uX c #4FA5CA",
"iX c #6CB5CC",
"pX c #8E9690",
"aX c #84A7B1",
"sX c #82A3AA",
"dX c #A8BCB4",
"fX c #ACC0B7",
"gX c #82BBC9",
"hX c #93B8C3",
"jX c #95C3CE",
"kX c #93DEF7",
/* pixels */
"u s a } r.i j ^ } i i i / C.E.E j j i s ] }.F.} 3.} a 5 1 3 D.eX1.%.! W =.v 3 , $ < l 8 g 4 2 8 Z v R c ^ 4.g s 3 v H.3 u u f 4 ",
"5 i E >.1.C A l.2.^ ~ E l l v v l G W z #.r.Q x &.1.W Y a 5 F.r., Q =.) Q G 8 3 3 2 K v : , 6 } R c g c s u i u 3 2./ 3 i g u 3 ",
"g v v e x R i E ,.} o.e s b R b s q 3 $ + < v W q 3 5 z / t.2XR k d q q v z < n n 3 b E l s v ! s q z n e 5 5 s j 4.i 4 b o.5 u ",
"B >.l , 4 < $ 2 4 < , 7 R j +.3 0 , 3 4 3 s s z %.g , @ q t.7XA.D q - = # : i +.U I w.G ~ e 2 Q Q q e l q 1 = , g ^ ! f B Z c v ",
"r.=.H H v 4 , < u 2 2 v j ,.R 3 6 6 0 6 4 l < 2 G E l l l +.r.0.s i g s v N.;X2.' 4.=.9.( J y K %.0 D s 5 0 2 d G H 2.R.2.Z v g ",
":Xw.G 5.s , , : 4 6 0 s O. X.X~ 5 u 5 i 2 s z l z 6 8 x c l v E b d W v z #.=.H H E H o.q e n z R R D l q q q w 6 n E 4.|. X+.| ",
"N.v s 5 , d s 6 / s 6 L >.;XG.l d 5 5 R 2 i v v z e e 8 8 6 K E Z g i 2 $ # 5 s v 6 z e < 2 < 2 x D l 2 < = 2 z v 4 i g R.(.j 3.",
"1 1 0 : , 3 3 3 g j s j 1.X.R b s l s 3 $ , E F.! E R ' ~ 6 +.5.o.v d j 4 4 6 H H 0 q q 2 l 6 - - - q l z z 5 6 s : x ^ ~.H.Z 4.",
"4 , R o.E i 6 Z | / v d 6 s E r.B.} g 3 $ @ 3 =.3.R / h f ! +.J L v g g l 6 , < 6 < , 2 < D R l q w 6 q w r z r e x / Q q b r.z ",
"c B.|.Z.v H E Z v G F s p / n d z G.(.' j R >.d v v R v } ] g p / 1.;X,.s i < 2 q , < q s c 6 , l e q q 2 - 2 F :._.s , , v 1.2 ",
"n b 5.4Xx.` <.i 0 3 = 1 3 u i g 3 r =X4./ } R j R / l ~ / j u s C.'.6XtXl.: , = 6 5 $ = , , <.&.H J G l 3 3 v s :.t.3 s ! J.x x ",
"b i ,.Q.v.j R j , , 1 3 3 3 3 W H / 3.3 6 s 1 s H d 2 3 3 , >.B.Z.iXrXuX^.s 6 v R 5 : $ , s G J w - 2 2 e Q <.o.o.>.g R ' H 2 ~ ",
": , 3 u 1.5 <.o.5 H z z s u 3 ` } / <.5 G T , , x R g } N.h Z.5.$.%XV @.2.Z b Q t.| i Z } g W Q G z 2 2 r - e 2 i R d >.v.n Z g ",
"l $ , o.#.f ,.l 1 u G g 3 5 5 0 , s.OXz i. .a G Y 3 3 3 ..^.Z.+.R gXK.z Z 4 8 <.B e H o.O.b T ) W v s z G G H b u R g l '.;.+.! ",
"E l ,.B.^ V.0.s s j G ^ W ! T T I.C.Y D m.Y 1 G ^ d b u 3 3 : %.` ).gX[.n K o.&.Q s i , -.;Xj G W j 2 3 , 5 v v s R ~ d 4.J.n b ",
"e 6 E F.( z s a d G j j S ^  ./ I.n.` S D D G a d j 3 u s s 5 ) N.4.|.4.c o.A.{ Y f : : b G.%.R R R z s q q v g ~ >.+.b n K l 8 ",
"+.R s 0./ 1 5 s s d z G S s d a 9.0.G , @ = r ( W v ~ <.<.<.1.F.Z.>.i 3 R g / Q B s 3 H / # , 6 6 z H j C B %.+.E / / b / D.r.,.",
"! @.W R / Q v W g a 0 5 S S s / 1.J / 7.q.%.1.1.0.r.%.q , 3 s 3 6 W d $ ,.F.q.3.} v j H E i < , + < 8 i W :.7.6 +.4.3 , , - $ G ",
"j t d G g i K d.w.%.^ S / U.].*.s q D D D l q q q 1 r Q s a z ` v <.B 4 G H +.s s z v v z v l , 6 l 4 @ z q q s 3 } 4.E s s 2 W ",
"+.r.j W a x -.p.K G G G 0.G.e.W *.w.G q < @ @ 2 d D D 8._.<.T.} 6 D.,.v / f E Z + = $ < l c K ' 3 , q l l q 5 s Z s | B.s 0 6 R ",
"T...w.i.9.L.} s a a a 0 S 0 <.G R 8.j %.8.=.H 6 1 j D 1.:X0.A.! ~ D., u 6 q E P.3.3 3 5 v 6 < l +.E l : # - 6 6 3 s 3.v.h j h E ",
"0.^ D P...S.f , , 0 d r S 5 ( / 1 = @ = =.eXwX8.r 6 L ) f h W R s K.G 3 6 , 4 x `.D._.(.| Z ~ B s b o.b n E +.) s 4.Z.5 5 s d v ",
"v d g } ) <.F.} S R h D W T ( B.h , 5 q.7X@X..) X. .T J s : s o.3 v.t.: , 4 6 s 7 _.j.dX,Xg Z c 6 : $ $ : 6 l z Q 0XD.3 5 3 3 v ",
"B , S Y W 3 s R S ( G <.V.F.I.F.W 8.8.G w D 8. .N S S a 5 T Q a u t.E : 6 8 6 s 8 [.M pXhXc.g 4 4 , 4 $ $ e 6 G 8.{.4.5 a a u W ",
"a u / ( ) h k j } X.) 3.2X9.%.W G J H j 0 q 7.^ k r _ tXQ.z.N.;X~.B.u 3 3 6 6 s m 9X~.dXkXA 6 u 4 , < : s l / F.q , u 3 u a j W ",
"d s 3 , a j j G B.^.9.<.L.9.0 d k , = 2 d S S U.Y. .m.I.%.' >.r.<./ s l g j 6 u 1 '.E.f.jX_ 4 : $ # > j 3.| G.1.@ , u 1 u a >.0.",
"3 1 a a d a G H.^ *.:X' #XC.k R a , , = , 1 S J 7XI.X.( ! ^ >.,.W.j , , , : , , 3 x +.%.7XR.2.[ ~ 2.K.+XJ.x r z , 3 s j g ^ Z.s ",
"3 5 a 0 0 a 1.J.h o.P.' <.( <.W k 0 , , = = 1 W d W y.F 9.eXh.b O.o.! R s i i 3 g c o.:XW.i b +.O.&.o.K z $ w j , 0 f h u A.W , ",
"1 3 , 5 k d J D T G ) J u.^ 8.) Y k 1 0 0 ( ) #XN.1./ L.<XS.B.0.<.l H b E E &.6.2.+.+.~ v Z 3 q d v R s v 5 q q 2 - 5 a R F.s 3 ",
"a a a d a S z w X.j J w.} } =.=.} R 0 d ^ A.X.'.W.j s O.7X .a Y z.J.a.v l l M < , 6 , 4 2 Q R ~ v B.D.: - - 2 2 2 < 0 0 >.) 3 u ",
"B j d s q ; . . O 2 J h Q r.j G J #.^ ) _.L.G K J W s u H A.{ | 0.H.4.E ~ O.j.L 4 3 4 8 v E D./ / B.+.4 2 q q D z 6 q r J j a a ",
"B k 3 1 = .       - S 0 G <.) S j G ( #.7.Q 0 a 5 W G *./ O.].D.D.Q.M.M.I.d.g.z , 4 g / Q K b ,.r.4.v 6 2 2 6 J l 2 z 6 1 a g R ",
"a , = $ : % % o o j T Q q .X6XT G j 3 @ q 9.( Y 5 F...q G j e H &.'.t.} 7.I , 4 : i B 4.6.l @.n l 6.<.: , 1 2 W W e z H / d d E ",
", @ + , # x s 1 } w.` ` e.sX:XY j a 1 $ < 8X1.Q W #.<.<.j 3 3 5 z d s s t M e 3 , i g =X%XB J.+.e d x E 1 s / z q 2 2 e J j u d ",
": : 3 3 s R d ( L.*.7./ W =X}.f d j k , s -.= 0 S a W / s a : : : : , 2 3 1 q < 2 3 M 6Xc.n p ,X6.! n +.s q <.2 @ ; 2 z s a g s ",
"1 3 , d +.h } t.W G $.q , x 2X..d 0 , , Q G = k a v R Y 3 s u : : : , $ = , , 3 5 3 e.tXC w 2.W.K 5 4 t z e 6 6 e z v q 1.} f T ",
"| Z Q <.( ( G #.<.g 1 5 3 R eXW.( ) Y W G d q 0 d S ! R 5 s f 3 : > 5 3 $ $ , 2 l ! _.H.3 z.!.*Xs.&.l 6 J 7 @ w z H v a G Q.3.|.",
"7X&.%.G d 2 5 G 0.) R h 3 >.`.5 D #.#.*.X.G 5 1 5 G } W f a f 3 3 3 5 6 $ $ - 3 >./ ~ a.9XL.t.f._.` d l 1 e = @ - 2 6 d 9.,.%.aX",
"O 9 R 5 0 k S G q 5 a W ( 7X9.5 0 q d S 0.W g h s 3 G 9./ 5 j R g u u : @ , $ R 3.2 b E o.~ 3 x :.v q 1 e l @ = + = 0 ) %.1 u q ",
"3 *.C.h W ( d , 5 5 s j H 8X!.j S ^ ) W %.Q H <.a u v 1X2.u 6 G s i 5 $ $ , q F.~ e v a 3 z d , - n j e F $ + = = , R %.3 u 5 5 ",
"a #.!.Y D G , , j d 0 s G D *XOXQ J D =.| G s J R X.q.hXH.R v v R s 3 6 5 H r.x 2 , , < , , q , $ 2 D 4 @ $ d =.( j j v 1 5 a , ",
"a j w.!...j S a S 0 k W G H F $XX.5 , 1 #.1 q 5 2 z q x 1.<./ w.;X! G j v ~ 6 0 6 : , , , , = , = q / ^ ' ) 8.#.Q u 3 s a a u 1 ",
"d 5 a P.} 1 6 D G j a d D d &.rXeX1XA.>.1.9.j 0 s 5 $ = z 6 l *.<Xz.V 3 , @ 6 v s 2 d : + + + , j 9.8.3XXXR q 2 , 5 0 s j a 1 3 ",
"W B.P.W.F.~ k S k , a W 1._.*XsX$X].9.*.{.L...) <.j 1 , 3 , 3 o._.~.N.F.v.W s z Z R } ! } +.%.Q >XiX1.eX| , 1 = = @ 0 S 5 5 a f ",
"D.1.O.D Q %.<.3.| G.<.J l 2 $ b ..5 d R t.q.D.3.W 7 & q v z q , % < x $XF.1.W G +.Q +.1.>.E 8 6 t '.3.l 6 1 1 1 2 P /.Q.V.3.r.V.",
"5 3 u , 1 1 :.3XP.1.d 5 6 4 2 2 8 q %.%.G v s J z H * * Q 6 s l 2 2 - @ 2 2 l H v , @ @ @ : : $ # x 9.j 1 , 6 , D 7.F.H z d s z ",
"q d 0 3 , j ( 8.W s d j Z l i 6 , , +.-.$.j q g 2 s 0 ; l 6 2 2 2 D g 8 2 2 q q l H s 2 < 6 f 6 = v 0.R 0 q q q 0 ( / , $ , 3 3 ",
"6 6 , , q 0 G S v d g ~ 6 2 6 , s } ^ j b W ' d z 6 = = 6 , , q 6 v v 6 2 w q e w 2 r 8 < i 4 R / z } } Q H q ( ( 8.j , , , 1 6 ",
"/ i i / 6 l ~ A ! E E s i g C ~ <.Y u u 2.e.6XZ.a i 2 2 l , , 6 3 s l d G v s 6 2 $ 2 z s , , s ) s 5 Y } `.Q l E 2 2 2 6 6 6 z ",
"R z Q >.b b +.~ Z } ' ' E R.Z.v s g h R T.2XeXyXx., , , 3 3 $ = = 3 1.-.e t H d i s ) >.+./ v R %.( o.v z J D z 2 e 6 l i l b b ",
"z 6 < < < @ $ < 7 c ,.,.2.3.c u s , 4.H.D.6X>X>XH.b d E 3.g : $ d j g G r - ; - q z o.W } >.l 6 6 D H 6 6 d l q x E H ~ v G W 2.",
"8 6 < < < < : < 4 4 n T.l.3.c i N.2.E.O.O.8Xp s ] g z / ,.>.v } <.i ' ( R b l e z w e 2 >.T.B W v w Q / e q r - r 3./ z v b v l ",
"i 8 s l 6 4 4 4 4 6 2.Y.v.E.j g ' N.' ,.! iX%XO.g 2 7 5.v 2 H n O.%.B Q Q j 0 s d W H *.XXOXC.} Q t y 1.d q d - 2 D %.z 6 v b E ",
"8 6 i l 4 - 4 : 4 i i &.,XB.6 R g # # E | b.gX.Xx &.3.<.W s 3 , ;.<XW R ! h 0 6 , , K s.5XoX!.S e x e G R D D q n q v v ,.#.H v ",
"Z v b g 6 s i i E ! g l 8 : 6 i d ~ E B.T.D.%.R s H 9._ N f : 5 j K H E b R b l g d Q y.4.b v 2 < 2 2 x H D 6 - q z D y.4X,.Z R ",
"3.~ ' Z i b ! +.2.b c v c b / v v Q / %.,./ a 4 +.R +.>.! s 3 Q +.$ : = < 8 z C V ( F.3.} s < 8 q q - - , 2 e z s 6 H l 2 6 E 4.",
"H E s R A c v.,.8 Z Z +.~ c R s 6 : s 0 3 q , $ #.G.D.) ) R E G G i 3 2 3 4 6 3 F P $.E ) j , : x R v 6 , g d l q 6 E z n y.>.b ",
"< @ $ Q ! @.Z 4 ~ ' g +.' c i i l l n @.e , 2 z R 6 Q 6 , 2 q e l v , , 2 2 d z E v z 6 2 z R Z g z v ^ T.' Z < < < 2 l 0.D.0 , ",
"i 2 < G Z l l g Z ~ v v Z i n z g Z ! 6 <.B.3 0 E g d Z , , $ 3 3 6 1 $ $ $ 3 1.O.7 n z 6 6 6 x | >.%.3.B.i : 4 4 , l s s 2./ z ",
"j u 2 ! b Z b Z g ~ Z x ' i A A 6 g B 3 +.K.E 2 , 1 j s d 5 R R o.3.g : 3 v v j G r 2 , < , 4 < < 4.z.3.! 4 , 4 l Z 5 d d h | t.",
"Y f a W l.Z c A ! E Z c ~ E ' ! Q b R R 5 6 4.R = 3 Y R E v 0X~.j =.^ v <.%.u | ( Y v b < 4 4 2 x R.x.3.} g s g ' Y.o.b W u ' A.",
"s g j j j 6 c ' Z s 6 i 4 i i 8 o.%.} ( E o.b v T =.1._  .f.aXV.Y s 2 b e :.} B ( J B W i 6 i 4 g ~ }.<X' s E s C N.@.v s 2.D.v ",
"5 1 , v Z i ~ ~ j c i c Z Z j Z H z s v D 8 7 r Z.9.-.$.Q =.9Xz.d j u 4 , t.;XR R R v i i i 4 i c i +.c 4 b } i } / g } H.1XB., ",
"a u 5 / / s ~ / ' c i +.Z.4.i 6.0.e = : $ 3 J p.-.s :.L 0 $ e.XXY g u : i z x H E Z v n b Z g +.c c g 8 v ~ ! j R u ~ 3.c J.W.u "
};
